<?xml version="1.0" encoding="UTF-8" standalone="no"?>
<!DOCTYPE svg PUBLIC "-//W3C//DTD SVG 1.1//EN"
        "http://www.w3.org/Graphics/SVG/1.1/DTD/svg11.dtd">
<svg xmlns:xlink="http://www.w3.org/1999/xlink" viewBox="0 0 909 1286" version="1.1" xmlns="http://www.w3.org/2000/svg">
    <defs>
        <clipPath id="c0_13">
            <path d="M.4,148.7V6.2H909V148.7Z"/>
        </clipPath>
        <clipPath id="c1_13">
            <path d="M.4,291.1V148.7H909V291.1Z"/>
        </clipPath>
        <clipPath id="c2_13">
            <path d="M.4,433.6V291.1H909V433.6Z"/>
        </clipPath>
        <clipPath id="c3_13">
            <path d="M.4,576V433.6H909V576Z"/>
        </clipPath>
        <clipPath id="c4_13">
            <path d="M.4,718.5V576H909V718.5Z"/>
        </clipPath>
        <clipPath id="c5_13">
            <path d="M.4,860.9V718.5H909V860.9Z"/>
        </clipPath>
        <clipPath id="c6_13">
            <path d="M.4,1003.4V860.9H909v142.5Z"/>
        </clipPath>
        <clipPath id="c7_13">
            <path d="M.4,1145.8V1003.4H909v142.4Z"/>
        </clipPath>
        <style type="text/css"><![CDATA[
.g0_13{
fill: #FFFFFF;
}
]]></style>
    </defs>
    <g clip-path="url(#c0_13)">
        <path fill-rule="evenodd" d="M.6,148.5H909.2V6.4H.6V148.5Z" class="g0_13"/>
    </g>
    <g clip-path="url(#c1_13)">
        <path fill-rule="evenodd" d="M.6,290.9H909.2v-142H.6v142Z" class="g0_13"/>
    </g>
    <g clip-path="url(#c2_13)">
        <path fill-rule="evenodd" d="M.6,433.4H909.2V291.3H.6V433.4Z" class="g0_13"/>
    </g>
    <g clip-path="url(#c3_13)">
        <path fill-rule="evenodd" d="M.6,575.8H909.2v-142H.6v142Z" class="g0_13"/>
    </g>
    <g clip-path="url(#c4_13)">
        <path fill-rule="evenodd" d="M.6,718.3H909.2V576.2H.6V718.3Z" class="g0_13"/>
    </g>
    <g clip-path="url(#c5_13)">
        <path fill-rule="evenodd" d="M.6,860.7H909.2v-142H.6v142Z" class="g0_13"/>
    </g>
    <g clip-path="url(#c6_13)">
        <path fill-rule="evenodd" d="M.6,1003.2H909.2V861.1H.6v142.1Z" class="g0_13"/>
    </g>
    <g clip-path="url(#c7_13)">
        <path fill-rule="evenodd" d="M.6,1145.6H909.2v-142H.6v142Z" class="g0_13"/>
    </g>
    <image preserveAspectRatio="none" x="0" y="1146" width="909" height="141" xlink:href="img/1.png"/>
    <image preserveAspectRatio="none" x="295" y="108" width="375" height="207" xlink:href="img/2.png"/>
    <image preserveAspectRatio="none" x="156" y="482" width="24" height="26" xlink:href="img/3.png"/>
    <image preserveAspectRatio="none" x="468" y="504" width="24" height="27" xlink:href="img/4.png"/>
</svg>